<svg xmlns="http://www.w3.org/2000/svg" viewBox="0 0 150.4 125.04"><defs><style>.cls-1{font-size:21px;stroke:#1d1d1b;stroke-miterlimit:10;stroke-width:0.75px;font-family:MonotypeCorsiva, Monotype Corsiva;}.cls-1,.cls-2{fill:#1d1d1b;}.cls-3{fill:#fff;}</style></defs><g id="Layer_2" data-name="Layer 2"><g id="Layer_1-2" data-name="Layer 1"><text class="cls-1" transform="matrix(0.99, -0.16, 0.16, 0.99, 18.79, 98.95)">C</text><text class="cls-1" transform="matrix(1, 0.05, -0.05, 1, 28.89, 97.4)">o</text><text class="cls-1" transform="translate(36.73 97.75) rotate(12.99)">d</text><text class="cls-1" transform="translate(45.24 99.76) rotate(21.48)">e</text><text class="cls-1" transform="translate(51.58 102.36) rotate(25.86)"> </text><text class="cls-1" transform="translate(55.99 104.6) rotate(23.5)">E</text><text class="cls-1" transform="translate(68.57 110.07) rotate(18.92)">m</text><text class="cls-1" transform="matrix(0.97, 0.24, -0.24, 0.97, 81.68, 114.46)">p</text><text class="cls-1" transform="translate(91.41 116.74) rotate(8.58)">e</text><text class="cls-1" transform="matrix(1, 0.06, -0.06, 1, 99.23, 117.88)">r</text><text class="cls-1" transform="translate(106.48 118.35) rotate(-2.82)">o</text><text class="cls-1" transform="matrix(0.98, -0.18, 0.18, 0.98, 115.99, 117.75)">r</text><path class="cls-2" d="M81.19,85.39a246.67,246.67,0,0,0-61.76-6.33c3.8-5,8.33-12.6,9.3-22.32.72-7.15-.84-11.92-1.49-16C25.86,31.9,27.59,18.7,42,0a21.65,21.65,0,0,1,1.87,6.34A21.3,21.3,0,0,1,43.7,13a8.79,8.79,0,0,1,7.55,4.74,13.93,13.93,0,0,1,1.16,9.13,13.08,13.08,0,0,0-3.38-6,3.32,3.32,0,0,0-1.67-1c-1.42-.26-2.58,1.09-3.31,2.34-4.78,8.23-6.27,22.39,2.24,28.91,4.59,3.51,9.84-2.92,12.33-6.12l-1.56-10.2,7-7.6,3.45,10.39-5.92,7.92s7,30.54,23.82-2.85l-1.75.64,1.77-4.52s-5.34-1.63.09-5.42c0,0-.33-12.94-11.18-.3,0,0,8.4-21.17,15.62-10.41,0,0,5.14-13.81,8.25-16.94.13-.13-.12.09,0,0,0,.14,0-.18,0,0C99,10,95.58,24.34,95.58,24.34c12-4.9,7.16,17.35,7.16,17.35-2-16.55-9.46-6-9.46-6,2.4,6.18-2.94,4.55-2.94,4.55l-1,4.74-1.1-1.5c-4.7,37.07,18.17,15.65,18.17,15.65l-.49-9.87,8.66-6.7,1.56,10.2-7,7.6c.27,4,1.05,12.31,6.81,12,10.7-.65,17.37-13.23,18-22.74.1-1.44-.11-3.21-1.44-3.78a3.3,3.3,0,0,0-2-.07,13.06,13.06,0,0,0-6.12,3.06,13.92,13.92,0,0,1,6-6.93,8.81,8.81,0,0,1,8.92.28A21.44,21.44,0,0,1,148,32.34a105.8,105.8,0,0,1-5,40,105.37,105.37,0,0,1-14.88,29A246.44,246.44,0,0,0,81.19,85.39Z"/><polygon class="cls-3" points="100.62 77.48 101.43 83.44 104.85 70.49 93.35 82.16 100.62 77.48"/><polygon class="cls-3" points="80.3 74.54 81.11 80.5 84.54 67.55 73.04 79.22 80.3 74.54"/><polygon class="cls-3" points="59.98 71.6 60.79 77.56 64.22 64.61 52.72 76.28 59.98 71.6"/></g></g></svg>