<svg xmlns="http://www.w3.org/2000/svg" viewBox="0 0 572.78 451.19"><defs><style>.cls-1{fill:#f0e517;}.cls-1,.cls-10,.cls-5,.cls-6{stroke:#1d1d1b;stroke-miterlimit:10;}.cls-1,.cls-6{stroke-width:2px;}.cls-2{fill:#1d1d1b;}.cls-3{fill:#030304;}.cls-4,.cls-5,.cls-6{fill:#f7a620;}.cls-5{stroke-width:3px;}.cls-7{fill:#f7a41b;}.cls-8{fill:#e41d21;}.cls-9{fill:#ec671a;}.cls-10{fill:#fff;stroke-width:4px;}.cls-11{fill:#70a6cd;}</style></defs><g id="Layer_2" data-name="Layer 2"><g id="Layer_2-2" data-name="Layer 2"><path class="cls-1" d="M77.59,213.61s-30.48,3.84-41.52,9.6,4.56,6.48,5.52,6.48,45.6,2.88,47,4.8S25,243.13,6.79,262.57s12.48,13,12.48,13,87.79-19.52,88.56-9.6S122,240,77.59,213.61Z"/><path class="cls-1" d="M398,299.55s30.24-48.24,80.16-52.32c0,0-14.45,41.46-64.71,64.65Z"/><path class="cls-2" d="M289.75,257.29a43.78,43.78,0,0,1,8,10.37,26.86,26.86,0,0,1,3.53,12.64,19.81,19.81,0,0,1-4.38,12.37,36.15,36.15,0,0,1-10,8.57,92.88,92.88,0,0,1-24.55,9.3,212.11,212.11,0,0,1-25.86,4.35c4.3-.76,8.63-1.32,12.9-2.25,4.3-.77,8.55-1.78,12.77-2.85,8.41-2.2,16.75-5,24.23-9.4a35.46,35.46,0,0,0,9.82-8.28,19.35,19.35,0,0,0,4.33-11.82,26.14,26.14,0,0,0-3.2-12.41A45.81,45.81,0,0,0,289.75,257.29Z"/><path class="cls-1" d="M294.26,257.27c29-36.72,50.62-82.12,47-128.76-4-51.55-40.72-98.38-88.82-117.36-29.82-11.76-63.21-13-94.19-5.28a164.16,164.16,0,0,0-44.54,18.32c-14,8.38-25,20.91-34.6,34a152.19,152.19,0,0,0-20.86,39c-9.15,26-10.11,55.22.05,80.8,7.29,18.38,19.83,34.09,30.61,50.68s20.13,35.22,19.71,55c-.18,8.69-2,18.3,3,25.39,4.8,6.77,14,8.48,22.3,8.91,27.77,1.47,56.13-4.95,83.14,1.66,34.81,8.52,61.11,37,94.06,51.13a121.54,121.54,0,0,0,66.12,8.31c11-1.7,22.13-5.15,30.37-12.62,15.74-14.25,15.42-42.46-.64-56.35-25.23-21.81-68-3.64-95.67-22.2a409.59,409.59,0,0,1,146.56-60.06c4.1-.8,8.41-1.64,11.58-4.35s4.55-8,1.72-11.08c-1.74-1.88-4.46-2.41-7-2.78a198.6,198.6,0,0,0-79.27,4.4l39.63-23.4c-11-5.89-24.42-3.52-36.28.19A188.36,188.36,0,0,0,294.26,257.27Z"/><path class="cls-3" d="M278.23,335.53s-1.92,17.28,25.68,20.16C303.91,355.69,284.71,350.17,278.23,335.53Z"/><path class="cls-4" d="M312.06,370.35q-15.8,16.25-30.86,33.19a10.22,10.22,0,0,0-2.71,4.36c-.36,1.7.45,3.77,2.13,4.2-32-21.5-64.56-43.25-101.18-55.39-5.87-1.95-12.05-3.66-18.17-2.75-6.28.93-11.88,4.56-16.53,8.88-4,3.71-7.56,8.15-9.07,13.4-3.22,11.21,3.44,22.67,10.08,32.26-5.84-6.24-10.57-13.8-12.12-22.21s.44-17.72,6.41-23.84c-.2.21-2.74-.4-3.14-.45-1.24-.14-2.48-.23-3.73-.28a52.63,52.63,0,0,0-7.21.2,45.43,45.43,0,0,0-11.56,2.75c-6.8,2.54-11.94,8.86-13.67,15.84-2.1,8.48.3,17.65,5.09,25S117.59,418.41,125,423c18,11.17,38.79,16.89,59.6,20.71a354.58,354.58,0,0,0,88.47,5.15c8.71-.61,18.54-2.22,23.39-9.48,3.62-5.42,3.34-12.42,4.4-18.85,3-18.08,16.74-32.19,29.84-45Z"/><path class="cls-2" d="M312.06,370.35c-6.34,6.78-12.55,13.67-18.73,20.59q-4.62,5.21-9.17,10.46L281.88,404a15.31,15.31,0,0,0-1.95,2.64,4.91,4.91,0,0,0-.51,1.38,3.31,3.31,0,0,0,0,1.33,2.16,2.16,0,0,0,1.43,1.73l-.81,1.83c-7.16-4.63-14.32-9.26-21.53-13.78s-14.33-9.19-21.65-13.52a324.17,324.17,0,0,0-45.41-22.93l-5.93-2.28-6-2.1a55.23,55.23,0,0,0-12.06-3,24.63,24.63,0,0,0-6,.1,23,23,0,0,0-5.74,1.69,36.41,36.41,0,0,0-10.08,6.91,32.21,32.21,0,0,0-7.4,9.63,18.59,18.59,0,0,0-1.06,2.77c-.15.48-.24,1-.36,1.45l-.16.72-.1.74a20.88,20.88,0,0,0,0,6,28.45,28.45,0,0,0,1.43,5.91,45,45,0,0,0,2.43,5.69A93.73,93.73,0,0,0,147,407.65l-2.33,1.88A56,56,0,0,1,136.8,399a40,40,0,0,1-4.64-12.42,31.64,31.64,0,0,1,.39-13.35A25.8,25.8,0,0,1,139,361.4l2.15,2.1a1.85,1.85,0,0,1-.85.45l-.3,0h-.35l-.45-.05a7.37,7.37,0,0,1-.75-.12l-1.39-.27-.28-.06h-.26l-.67-.05-1.34-.1a41.55,41.55,0,0,0-5.35-.11,42.9,42.9,0,0,0-10.52,1.64,38.94,38.94,0,0,0-5,1.77,19.26,19.26,0,0,0-4.29,2.76,22,22,0,0,0-6.06,8.25,23.79,23.79,0,0,0-1.79,10.14A30.77,30.77,0,0,0,103.66,398c2.55,6.6,7.21,12.25,12.67,16.89a93.51,93.51,0,0,0,18.22,11.73,140.24,140.24,0,0,0,20.2,8.24c13.89,4.5,28.33,7.27,42.81,9.46a356.65,356.65,0,0,0,43.78,3.75q11,.26,22-.18c3.65-.15,7.33-.37,11-.63a51.82,51.82,0,0,0,10.55-1.79,19.53,19.53,0,0,0,8.82-5c2.36-2.38,3.56-5.62,4.28-9.06s1-7.14,1.61-10.86a52.15,52.15,0,0,1,3.28-10.81,60.81,60.81,0,0,1,5.39-9.83,85.82,85.82,0,0,1,6.76-8.85,208.18,208.18,0,0,1,15.48-15.81l.17.64Zm0,0,18.75,4.82.64.16-.47.48a214.63,214.63,0,0,0-14.85,16.24,83.59,83.59,0,0,0-6.34,8.9,58.88,58.88,0,0,0-4.89,9.67A49.25,49.25,0,0,0,302.13,421c-.5,3.55-.6,7.24-1.27,11a24,24,0,0,1-1.67,5.61,16.62,16.62,0,0,1-3.37,5,23,23,0,0,1-10.14,5.79,54.74,54.74,0,0,1-11.17,1.9c-3.71.27-7.38.48-11.08.63-7.38.3-14.78.36-22.16.19a362.19,362.19,0,0,1-44.14-3.78c-14.6-2.21-29.17-5-43.31-9.58a145.11,145.11,0,0,1-20.63-8.41,96.68,96.68,0,0,1-18.81-12.12,55.18,55.18,0,0,1-7.86-8.16,40.29,40.29,0,0,1-5.65-9.93,33.67,33.67,0,0,1-2.38-11.24,26.69,26.69,0,0,1,2-11.41,25.23,25.23,0,0,1,6.88-9.38,22.48,22.48,0,0,1,5-3.18,39,39,0,0,1,5.41-1.93A46.12,46.12,0,0,1,129,360.21a43.09,43.09,0,0,1,5.68.12l1.41.11.71.05h.26l.16,0,.4.08,1.32.26.61.1.23,0h0l-.13,0a1.41,1.41,0,0,0-.69.39l2.15,2.1A22.71,22.71,0,0,0,135.46,374a28.61,28.61,0,0,0-.35,12.08,36.87,36.87,0,0,0,4.3,11.48,52.86,52.86,0,0,0,7.44,10l-2.33,1.88a93.9,93.9,0,0,1-6.77-11.08,47.23,47.23,0,0,1-2.6-6.06,31.62,31.62,0,0,1-1.57-6.5,24,24,0,0,1,0-6.77l.11-.85.19-.83c.14-.56.25-1.12.41-1.67a23,23,0,0,1,1.22-3.18,35.25,35.25,0,0,1,8.07-10.56,39.58,39.58,0,0,1,10.93-7.46,25.88,25.88,0,0,1,6.5-1.91,27.26,27.26,0,0,1,6.75-.11,58.13,58.13,0,0,1,12.72,3.11l6.07,2.13,6,2.31a325.81,325.81,0,0,1,45.83,23.15c7.32,4.43,14.64,8.84,21.7,13.66s14.08,9.65,21.08,14.52l4.8,3.34-5.61-1.51a3.62,3.62,0,0,1-1.95-1.33,4.66,4.66,0,0,1-.87-2,5.22,5.22,0,0,1,.05-2.12,7.06,7.06,0,0,1,.76-1.85,16.59,16.59,0,0,1,2.27-2.88l2.36-2.55q4.74-5.12,9.54-10.16C298.92,383.47,305.46,376.88,312.06,370.35Z"/><path class="cls-5" d="M413.59,353.87c-.46-.18-1.46-3.77-1.57-4.19a21.49,21.49,0,0,1-.68-4.64,20.9,20.9,0,0,1,1.66-9.17c.94-2.1,3.71-3.19,5.82-3.73a19,19,0,0,1,8.84.16,44.36,44.36,0,0,1,7.93,2.69,213.49,213.49,0,0,1,43.52,25.3,9.12,9.12,0,0,1,3.08,3.28,9.25,9.25,0,0,1,.54,3.59L483,380.1c1.42-40.18-7.42-81.54,4.26-120,1.38-4.54,3.09-9.08,6.06-12.77s7.43-6.45,12.18-6.38c3.65.05,7.06,1.73,10.21,3.58a83.5,83.5,0,0,1,26,23.9c-9.48-12-19.82-24.65-34.38-29.37-.61-6.29,2.88-12.58,8.09-16.16s11.89-4.61,18.14-3.73c13.09,1.83,24.09,11.63,30.1,23.4s7.62,25.29,7.69,38.5c.2,41.31-14.06,82-36.87,116.42-9,13.54-19.38,26.33-32.26,36.24-4.84,3.72-11.32,7.13-16.77,4.37-3-1.51-4.87-4.55-6.39-7.54-5.62-11-8.66-23.05-12.79-34.68s-9.62-23.2-18.92-31.31a44.89,44.89,0,0,0-33.65-10.68Z"/><path class="cls-6" d="M146.11,270.61s8.1-30.06,42.3-7.38l.81-4s0,27.81,21.15,37.08c0,0-7.56-2.28-8.94-4s6.36,23.7-26.52,13.86c0,0,20.64-6.24,22-19.2C196.87,287.05,181,259.93,146.11,270.61Z"/><path class="cls-7" d="M180.53,302.57c-2.77,0-4-2.92-4.15-3.25l-.1-.26,0-.28c-1.5-14.25-8.22-21.17-8.28-21.24l-.5-.49-.07-.69a4.18,4.18,0,0,1,1-3.12,4.32,4.32,0,0,1,3.36-1.34,9.44,9.44,0,0,1,2.51.39c5.33,1.5,9.49,15.53,9.66,16.13,1.83,6.25,1.93,10.36.29,12.2a5,5,0,0,1-3.67,1.95Z"/><path class="cls-2" d="M171.74,273.9a7.5,7.5,0,0,1,2,.31c4.68,1.32,11.88,21.84,9,25.08a3.05,3.05,0,0,1-2.18,1.28c-1.49,0-2.29-2-2.29-2-1.59-15.12-8.85-22.44-8.85-22.44s-.25-2.23,2.35-2.23m0-4a6.23,6.23,0,0,0-4.85,2,6.15,6.15,0,0,0-1.48,4.67l.15,1.38,1,1c0,.05,6.3,6.69,7.71,20l.06.56.2.52c.84,2.07,2.91,4.5,6,4.5a6.85,6.85,0,0,0,5.16-2.62c1.38-1.55,2.89-4.69.14-14.09-.76-2.62-4.89-15.76-11-17.5a11.3,11.3,0,0,0-3-.46Z"/><path class="cls-8" d="M186.49,297.41c-1.37,0-2.22-1.16-2.52-3.45-1-7.51,6.42-12.54,6.74-12.75l.39-.26.45.14a4.39,4.39,0,0,1,3.22,4q0,.21.06.36c.52.49.8,1.36-2.74,6.53-.7,1.22-3.29,5.44-5.6,5.44Z"/><path class="cls-2" d="M191.26,282c3,.9,2.25,3.6,2.79,4s-2.79,5.31-2.79,5.31-2.87,5-4.77,5c-.71,0-1.28-.69-1.53-2.58-.9-7,6.3-11.79,6.3-11.79m-.32-2.18-.79.52c-.33.23-8.22,5.59-7.17,13.71.49,3.76,2.41,4.32,3.51,4.32,2.64,0,5.17-3.69,6.47-5.94,3-4.38,3.74-6.22,2.81-7.46v-.09a5.35,5.35,0,0,0-3.92-4.79l-.9-.27Z"/><path class="cls-9" d="M184,285.74c-1.82,0-4.88-7.13-6.12-10.19a1.09,1.09,0,0,1,0-1.07,1.34,1.34,0,0,1,1.2-.48c2.64,0,10.11,3.37,10.8,4.88a2.53,2.53,0,0,1-.44,2.25c-1.11,1.9-3.92,4.48-5.38,4.61Z"/><path class="cls-2" d="M179.08,274.5c2.5,0,9.78,3.35,10.34,4.59.72,1.57-3.74,6-5.4,6.15h0c-1.68,0-5.65-9.88-5.65-9.88-.27-.61.06-.86.75-.86m0-1a1.78,1.78,0,0,0-1.61.71,1.55,1.55,0,0,0-.06,1.55c4.22,10.48,6,10.48,6.57,10.48h.12c1.8-.16,4.7-3,5.78-4.86a3,3,0,0,0,.45-2.71c-.81-1.78-8.67-5.17-11.25-5.17Z"/><path class="cls-2" d="M69.59,97.79a9.77,9.77,0,0,1-.54-4.27,17.93,17.93,0,0,1,.29-2.17c.17-.71.37-1.42.6-2.11s.52-1.37.85-2,.69-1.28,1-1.92.83-1.2,1.24-1.8.92-1.11,1.38-1.68a30.18,30.18,0,0,1,3.07-3c1.1-.92,2.26-1.75,3.43-2.55s2.45-1.44,3.71-2.07,2.6-1.13,3.94-1.56c-1,1-2.08,1.9-3.13,2.79s-2,1.85-3.09,2.71-2,1.84-2.94,2.78-1.91,1.87-2.74,2.91-1.68,2-2.5,3.06c-.37.54-.72,1.09-1.11,1.63s-.65,1.13-1,1.69-.58,1.18-.88,1.77a19.74,19.74,0,0,0-.73,1.85A15.35,15.35,0,0,0,69.59,97.79Z"/><path class="cls-2" d="M214.92,50.2a10,10,0,0,1,4.29-.4,18,18,0,0,1,2.16.36c.7.19,1.4.41,2.09.66s1.35.57,2,.91l1.89,1.11c.59.42,1.17.86,1.76,1.29s1.08,1,1.63,1.43a32.35,32.35,0,0,1,2.93,3.16c.88,1.13,1.67,2.32,2.44,3.51s1.36,2.5,2,3.77,1,2.63,1.44,4c-1-1-1.84-2.14-2.7-3.22s-1.79-2.09-2.62-3.17-1.77-2-2.68-3-1.81-2-2.82-2.83-2-1.74-3-2.6c-.54-.38-1.07-.75-1.6-1.15s-1.11-.69-1.66-1-1.16-.62-1.74-1a19.64,19.64,0,0,0-1.83-.77A15.47,15.47,0,0,0,214.92,50.2Z"/><path class="cls-10" d="M184.85,194.09c-1,30.46,9.26,63.1,23.58,59.08,17.37-4.88,23.46-30.74,23.58-59.08.15-35.89-8.58-59.46-23.58-59.08C193.11,135.39,186,159.05,184.85,194.09Z"/><path class="cls-11" d="M187.33,220.88c-.74,17.42,6.7,36.08,17.07,33.78,12.57-2.79,16-17.48,16.1-33.68.11-20.52-5.24-34.09-16.1-33.87C193.31,187.33,188.17,200.85,187.33,220.88Z"/><path class="cls-3" d="M195,232.83c-.39,11.68,3.6,24.19,9.16,22.65,6.74-1.87,8.59-11.72,8.64-22.59,0-13.76-2.81-22.86-8.64-22.71S195.46,219.39,195,232.83Z"/><path class="cls-2" d="M220.29,140.83a98.61,98.61,0,0,0,18.61-16.51,71.36,71.36,0,0,0,7.25-10.17,47.1,47.1,0,0,0,4.58-11.64,47.41,47.41,0,0,1-4.14,11.87A72.34,72.34,0,0,1,239.67,125a99,99,0,0,1-18.27,17.53Z"/><path class="cls-2" d="M213.9,134.43c2.32-3.26,4.5-6.68,6.54-10.15A117.39,117.39,0,0,0,226,113.55a59.17,59.17,0,0,0,3.95-11.4,27.47,27.47,0,0,0,.71-6,14.21,14.21,0,0,0-1.2-5.89,14.21,14.21,0,0,1,1.45,5.88,27.61,27.61,0,0,1-.47,6.09,59.53,59.53,0,0,1-3.52,11.7,115,115,0,0,1-5.2,11.07c-1.92,3.6-4,7.11-6.2,10.56Z"/><path class="cls-2" d="M202.94,134.81a113.41,113.41,0,0,0,1.78-14.07,118.35,118.35,0,0,0,.07-14.22,88.33,88.33,0,0,0-2.06-14.09,60.26,60.26,0,0,0-5-13.32,60.75,60.75,0,0,1,5.53,13.2,91,91,0,0,1,2.57,14.13,118.92,118.92,0,0,1,.42,14.38,114.34,114.34,0,0,1-1.3,14.37Z"/><path class="cls-10" d="M134.41,197.71c10.77,27.72,11.84,61.08-2.64,62C114.21,260.82,100.26,239,91,212.93c-11.72-33-11.29-57.5,2.64-62C107.86,146.34,122,165.83,134.41,197.71Z"/><path class="cls-11" d="M136.94,224.62c6.3,15.8,5.47,35.38-4.81,36.6-12.48,1.49-20.39-10.92-25.69-25.81-6.73-18.85-6.18-33.06,3.89-36.37C120.6,195.66,129.7,206.45,136.94,224.62Z"/><path class="cls-3" d="M134.38,237.52c4.14,10.63,4.5,23.43-1.11,23.81-6.82.45-11.7-8-15.24-18-4.5-12.65-4.79-21.95.62-23.7S129.63,225.3,134.38,237.52Z"/><path class="cls-2" d="M84.1,162a93.73,93.73,0,0,1-11.58-4.42,94.8,94.8,0,0,1-10.89-5.83,70.7,70.7,0,0,1-9.78-7.51,45.85,45.85,0,0,1-7.63-9.61,45.73,45.73,0,0,0,8,9.24,69,69,0,0,0,10,7,91.44,91.44,0,0,0,11,5.31,90.83,90.83,0,0,0,11.5,3.86Z"/><path class="cls-2" d="M87.26,153.77c-3.18-2.46-6.19-5-9.12-7.73a113.64,113.64,0,0,1-8.35-8.51,58.24,58.24,0,0,1-7-9.64,27.33,27.33,0,0,1-2.39-5.46,13.86,13.86,0,0,1-.56-5.89,13.8,13.8,0,0,0,.79,5.81,27.58,27.58,0,0,0,2.59,5.29,58,58,0,0,0,7.32,9.21,115.11,115.11,0,0,0,8.61,8.07c3,2.53,6.12,5,9.3,7.23Z"/><path class="cls-2" d="M96.92,150a112.54,112.54,0,0,1-5.84-12.82,116.1,116.1,0,0,1-4.24-13.38,88.79,88.79,0,0,1-2.19-13.84A59,59,0,0,1,85.49,96a58.71,58.71,0,0,0-.34,13.89,87.55,87.55,0,0,0,2.66,13.63,116,116,0,0,0,4.66,13.07A109.74,109.74,0,0,0,98.65,149Z"/><path class="cls-2" d="M194.11,257a13.57,13.57,0,0,1,5.73-3.38,21.1,21.1,0,0,1,6.65-.93,22.83,22.83,0,0,1,6.57,1.2,23.35,23.35,0,0,1,3,1.3,22.07,22.07,0,0,1,2.78,1.81c-1.13-.06-2.18-.27-3.23-.41l-1.58-.21c-.51-.07-1-.16-1.55-.2-2.05-.27-4.08-.4-6.11-.49a51.41,51.41,0,0,0-6.07.23A42,42,0,0,0,194.11,257Z"/><path class="cls-2" d="M121.83,267.15a13.47,13.47,0,0,1,4.26-5.1,20.87,20.87,0,0,1,5.95-3.11,22.44,22.44,0,0,1,6.58-1.08,24.31,24.31,0,0,1,3.31.2,23.57,23.57,0,0,1,3.22.77c-1.08.32-2.14.48-3.18.7l-1.55.34c-.51.1-1,.19-1.53.33-2,.43-4,1-5.92,1.59a51.42,51.42,0,0,0-5.64,2.26A41.62,41.62,0,0,0,121.83,267.15Z"/></g></g></svg>