<svg xmlns="http://www.w3.org/2000/svg" viewBox="0 0 931.07 725.47"><defs><style>.cls-1,.cls-8{fill:#fad2c0;}.cls-1,.cls-5,.cls-9{stroke:#1d1d1b;stroke-miterlimit:10;}.cls-1{stroke-width:10px;}.cls-2{fill:#fff;}.cls-3{fill:#2fabcd;}.cls-4{fill:#030304;}.cls-5,.cls-6{fill:#f0e517;}.cls-5{stroke-width:4px;}.cls-7{fill:#1d1d1b;}.cls-9{fill:none;}</style></defs><g id="Layer_2" data-name="Layer 2"><g id="vector"><ellipse class="cls-1" cx="464.11" cy="220.37" rx="265.26" ry="215.37"/><ellipse class="cls-2" cx="333.46" cy="223.75" rx="118.55" ry="108.18"/><ellipse class="cls-3" cx="342.08" cy="230.91" rx="109.94" ry="100.04"/><ellipse class="cls-4" cx="358.56" cy="226.63" rx="89.46" ry="81.41"/><circle class="cls-2" cx="380.2" cy="220.05" r="38.12"/><ellipse class="cls-2" cx="604.08" cy="223.75" rx="118.55" ry="108.18"/><ellipse class="cls-3" cx="595.46" cy="230.91" rx="109.94" ry="100.04"/><ellipse class="cls-4" cx="578.98" cy="226.63" rx="89.46" ry="81.41"/><circle class="cls-2" cx="557.34" cy="220.05" r="38.12"/><path class="cls-5" d="M208.3,163.25s108.12,35.38,261.25-85.14c0,0,87.28,85.85,253.08,93.8,10.9-13.49-70.83-158.44-257.16-160C295.17,10.49,229.09,113.65,208.3,163.25Z"/><path class="cls-6" d="M856.84,264.6c-38.16,0-71-8.67-97.72-25.77a132.47,132.47,0,0,1-51-60.07,123.35,123.35,0,0,1-9.22-62.8c2.54-20.55,10.46-38.19,22.93-51,15.58-16,34.33-24.46,54.23-24.46,23.89,0,47.62,12.41,63.47,33.21,17.51,23,23,52.85,15,82-7.2,26.23-4.78,48.7,7.2,66.79,14,21.17,37.74,31.37,53.37,36a301.3,301.3,0,0,1-58.24,6.09Z"/><path class="cls-7" d="M776.07,44c22.8,0,45.49,11.9,60.69,31.83,16.84,22.09,22.08,50.86,14.37,79-7.48,27.24-4.9,50.67,7.66,69.64,11.13,16.81,28.08,27,42.67,33a285.88,285.88,0,0,1-44.63,3.71c-37.47,0-69.71-8.49-95.82-25.22a129,129,0,0,1-49.65-58.48,119.72,119.72,0,0,1-9-61c2.43-19.79,10-36.73,22-49C739.25,52.09,757.14,44,776.07,44m0-7c-19.41,0-39.4,7.71-56.74,25.52C663.59,119.8,698.86,268.1,856.83,268.1c22.28,0,47-3,74.24-9.52,0,0-97.59-13.07-73.19-101.95C875.63,92,827.89,37,776.07,37Z"/><path class="cls-6" d="M74.24,257.19a294.24,294.24,0,0,1-52.2-5C37.56,246.84,58,236.53,70.62,217.4c12.22-18.46,14.71-41.35,7.4-68C70.14,120.7,75.5,91.29,92.73,68.7,108.3,48.28,131.58,36.09,155,36.09c19.49,0,37.87,8.3,53.16,24,12.23,12.57,20,29.91,22.51,50.14a121.81,121.81,0,0,1-9.11,62,130.94,130.94,0,0,1-50.42,59.38C144.71,248.6,112.1,257.19,74.24,257.19Z"/><path class="cls-7" d="M155,31.09v10c18.11,0,35.25,7.78,49.57,22.5,11.47,11.78,18.78,28.12,21.14,47.26A116.72,116.72,0,0,1,217,170.32a126,126,0,0,1-48.51,57.13c-25.61,16.41-57.31,24.74-94.2,24.74a273,273,0,0,1-34.16-2.25c12.51-6.41,25.51-15.89,34.7-29.78,13.07-19.72,15.77-44,8.06-72.09a89.83,89.83,0,0,1-1.71-42A84.83,84.83,0,0,1,96.7,71.74c14.63-19.2,36.43-30.65,58.3-30.65v-10m0,0c-51.82,0-99.55,55-81.81,119.63C97.59,239.6,0,252.67,0,252.67c27.25,6.57,52,9.52,74.24,9.52,158,0,193.25-148.3,137.5-205.58C194.41,38.8,174.42,31.09,155,31.09Z"/><path class="cls-8" d="M547.15,561.47c-4.46,0-10.12-2.94-17.32-9l-.47-.4L519.29,434.23h12.58l.35,1c1.45,4.22,35.49,103.44,21.79,122.66A8,8,0,0,1,547.15,561.47Z"/><path class="cls-7" d="M530.8,435.73S573.71,560,547.15,560c-3.87,0-9.2-2.63-16.35-8.65l-9.88-115.59h9.88m2.14-3H517.65l.28,3.26,9.88,115.59.11,1.24,1,.8c7.47,6.29,13.45,9.35,18.28,9.35a9.59,9.59,0,0,0,8.09-4.2c3.55-5,4.45-14.47,2.75-29-1.28-11-4.06-24.84-8.26-41.21-7.12-27.77-16-53.57-16.1-53.82l-.69-2Z"/><path class="cls-8" d="M379.55,561.47a8,8,0,0,1-6.86-3.58C359,538.67,393,439.46,394.49,435.24l.35-1h12.58L397.34,552.07l-.47.4c-7.19,6.06-12.86,9-17.31,9Z"/><path class="cls-7" d="M405.78,435.73,395.9,551.32c-7.15,6-12.48,8.65-16.35,8.65C353,560,395.9,435.73,395.9,435.73h9.88m3.27-3H393.77l-.7,2c-.09.25-9,26.05-16.1,53.82-4.19,16.37-7,30.24-8.26,41.21-1.7,14.51-.8,24,2.76,29a9.57,9.57,0,0,0,8.08,4.2c4.83,0,10.81-3.06,18.29-9.35l1-.8.1-1.24L408.77,436l.28-3.26Z"/><line class="cls-9" x1="407" y1="435.73" x2="464.11" y2="439.69"/><path class="cls-4" d="M464.11,706.48c2.47,17.78,27.47,19,27.47,19,34.57,0,32.15-33.81,32.15-33.81V582H536.2L523.73,437.76l-1.22-4.94-58.4,3.95-58.4-3.95-1.21,4.94L392,582H404.5V691.66s-2.43,33.81,32.15,33.81C436.65,725.47,461.64,724.26,464.11,706.48Z"/><line class="cls-9" x1="521.23" y1="432.82" x2="464.11" y2="436.77"/><polygon class="cls-3" points="422.87 441.42 422.87 461.42 505.85 461.42 505.85 442.4 422.87 441.42"/><rect class="cls-3" x="413.24" y="520.7" width="102.99" height="53.84"/><rect class="cls-2" x="413.24" y="590.34" width="38.78" height="78.05"/><rect class="cls-2" x="477.2" y="590.34" width="38.78" height="78.05"/><path class="cls-2" d="M417.48,680c-4.58,0,7.06,16.3,15.76,16.3S453.58,679.7,449,680C442.78,680.41,423.29,680,417.48,680Z"/><path class="cls-2" d="M512.35,680c4.59,0-7.05,16.3-15.76,16.3s-20.34-16.6-15.76-16.3C487.05,680.41,506.55,680,512.35,680Z"/><path class="cls-9" d="M435,325.09s-9.88,47.42,29.14,47.42,28.16-47.42,28.16-47.42"/></g></g></svg>